TITLE ""
FILE "2Q_t_0118-0134.mp3" MP3
  TRACK 01 AUDIO
    TITLE "2Q_t_0118-0134_01"
    INDEX 01 00:00:00
  TRACK 02 AUDIO
    TITLE "2Q_t_0118-0134_02"
    INDEX 01 00:01:33
  TRACK 03 AUDIO
    TITLE "2Q_t_0118-0134_03"
    INDEX 01 00:02:05
  TRACK 04 AUDIO
    TITLE "2Q_t_0118-0134_04"
    INDEX 01 00:03:71
  TRACK 05 AUDIO
    TITLE "2Q_t_0118-0134_05"
    INDEX 01 00:04:41
  TRACK 06 AUDIO
    TITLE "2Q_t_0118-0134_06"
    INDEX 01 00:05:43
  TRACK 07 AUDIO
    TITLE "2Q_t_0118-0134_07"
    INDEX 01 00:06:15
  TRACK 08 AUDIO
    TITLE "2Q_t_0118-0134_08"
    INDEX 01 00:09:52
  TRACK 09 AUDIO
    TITLE "2Q_t_0118-0134_09"
    INDEX 01 00:10:22
  TRACK 10 AUDIO
    TITLE "2Q_t_0118-0134_10"
    INDEX 01 00:11:32
  TRACK 11 AUDIO
    TITLE "2Q_t_0118-0134_11"
    INDEX 01 00:12:04
  TRACK 12 AUDIO
    TITLE "2Q_t_0118-0134_12"
    INDEX 01 00:15:04
  TRACK 13 AUDIO
    TITLE "2Q_t_0118-0134_13"
    INDEX 01 00:15:49
  TRACK 14 AUDIO
    TITLE "2Q_t_0118-0134_14"
    INDEX 01 00:16:58
  TRACK 15 AUDIO
    TITLE "2Q_t_0118-0134_15"
    INDEX 01 00:17:30
  TRACK 16 AUDIO
    TITLE "2Q_t_0118-0134_16"
    INDEX 01 00:19:64
  TRACK 17 AUDIO
    TITLE "2Q_t_0118-0134_17"
    INDEX 01 00:20:37
  TRACK 18 AUDIO
    TITLE "2Q_t_0118-0134_18"
    INDEX 01 00:21:63
  TRACK 19 AUDIO
    TITLE "2Q_t_0118-0134_19"
    INDEX 01 00:22:33
  TRACK 20 AUDIO
    TITLE "2Q_t_0118-0134_20"
    INDEX 01 00:24:72
  TRACK 21 AUDIO
    TITLE "2Q_t_0118-0134_21"
    INDEX 01 00:25:40
  TRACK 22 AUDIO
    TITLE "2Q_t_0118-0134_22"
    INDEX 01 00:26:57
  TRACK 23 AUDIO
    TITLE "2Q_t_0118-0134_23"
    INDEX 01 00:27:27
  TRACK 24 AUDIO
    TITLE "2Q_t_0118-0134_24"
    INDEX 01 00:30:09
  TRACK 25 AUDIO
    TITLE "2Q_t_0118-0134_25"
    INDEX 01 00:30:54
  TRACK 26 AUDIO
    TITLE "2Q_t_0118-0134_26"
    INDEX 01 00:31:52
  TRACK 27 AUDIO
    TITLE "2Q_t_0118-0134_27"
    INDEX 01 00:32:28
  TRACK 28 AUDIO
    TITLE "2Q_t_0118-0134_28"
    INDEX 01 00:35:28
  TRACK 29 AUDIO
    TITLE "2Q_t_0118-0134_29"
    INDEX 01 00:36:00
  TRACK 30 AUDIO
    TITLE "2Q_t_0118-0134_30"
    INDEX 01 00:36:71
  TRACK 31 AUDIO
    TITLE "2Q_t_0118-0134_31"
    INDEX 01 00:37:41
  TRACK 32 AUDIO
    TITLE "2Q_t_0118-0134_32"
    INDEX 01 00:40:02
  TRACK 33 AUDIO
    TITLE "2Q_t_0118-0134_33"
    INDEX 01 00:40:45
  TRACK 34 AUDIO
    TITLE "2Q_t_0118-0134_34"
    INDEX 01 00:42:07
  TRACK 35 AUDIO
    TITLE "2Q_t_0118-0134_35"
    INDEX 01 00:42:52
  TRACK 36 AUDIO
    TITLE "2Q_t_0118-0134_36"
    INDEX 01 00:45:62
  TRACK 37 AUDIO
    TITLE "2Q_t_0118-0134_37"
    INDEX 01 00:46:30
  TRACK 38 AUDIO
    TITLE "2Q_t_0118-0134_38"
    INDEX 01 00:47:71
  TRACK 39 AUDIO
    TITLE "2Q_t_0118-0134_39"
    INDEX 01 00:48:41
  TRACK 40 AUDIO
    TITLE "2Q_t_0118-0134_40"
    INDEX 01 00:52:42
  TRACK 41 AUDIO
    TITLE "2Q_t_0118-0134_41"
    INDEX 01 00:53:10
  TRACK 42 AUDIO
    TITLE "2Q_t_0118-0134_42"
    INDEX 01 00:54:18
  TRACK 43 AUDIO
    TITLE "2Q_t_0118-0134_43"
    INDEX 01 00:54:63
  TRACK 44 AUDIO
    TITLE "2Q_t_0118-0134_44"
    INDEX 01 00:57:36
  TRACK 45 AUDIO
    TITLE "2Q_t_0118-0134_45"
    INDEX 01 00:58:06
  TRACK 46 AUDIO
    TITLE "2Q_t_0118-0134_46"
    INDEX 01 00:59:11
  TRACK 47 AUDIO
    TITLE "2Q_t_0118-0134_47"
    INDEX 01 00:59:56
  TRACK 48 AUDIO
    TITLE "2Q_t_0118-0134_48"
    INDEX 01 01:02:45
  TRACK 49 AUDIO
    TITLE "2Q_t_0118-0134_49"
    INDEX 01 01:03:15
  TRACK 50 AUDIO
    TITLE "2Q_t_0118-0134_50"
    INDEX 01 01:04:18
  TRACK 51 AUDIO
    TITLE "2Q_t_0118-0134_51"
    INDEX 01 01:04:67
  TRACK 52 AUDIO
    TITLE "2Q_t_0118-0134_52"
    INDEX 01 01:06:72
  TRACK 53 AUDIO
    TITLE "2Q_t_0118-0134_53"
    INDEX 01 01:07:42
  TRACK 54 AUDIO
    TITLE "2Q_t_0118-0134_54"
    INDEX 01 01:08:39
  TRACK 55 AUDIO
    TITLE "2Q_t_0118-0134_55"
    INDEX 01 01:09:10
  TRACK 56 AUDIO
    TITLE "2Q_t_0118-0134_56"
    INDEX 01 01:11:69
  TRACK 57 AUDIO
    TITLE "2Q_t_0118-0134_57"
    INDEX 01 01:12:37
  TRACK 58 AUDIO
    TITLE "2Q_t_0118-0134_58"
    INDEX 01 01:13:45
  TRACK 59 AUDIO
    TITLE "2Q_t_0118-0134_59"
    INDEX 01 01:14:17
  TRACK 60 AUDIO
    TITLE "2Q_t_0118-0134_60"
    INDEX 01 01:18:36
  TRACK 61 AUDIO
    TITLE "2Q_t_0118-0134_61"
    INDEX 01 01:19:08
  TRACK 62 AUDIO
    TITLE "2Q_t_0118-0134_62"
    INDEX 01 01:20:21
  TRACK 63 AUDIO
    TITLE "2Q_t_0118-0134_63"
    INDEX 01 01:20:70
  TRACK 64 AUDIO
    TITLE "2Q_t_0118-0134_64"
    INDEX 01 01:25:48
  TRACK 65 AUDIO
    TITLE "2Q_t_0118-0134_65"
    INDEX 01 01:26:16
  TRACK 66 AUDIO
    TITLE "2Q_t_0118-0134_66"
    INDEX 01 01:27:23
  TRACK 67 AUDIO
    TITLE "2Q_t_0118-0134_67"
    INDEX 01 01:27:66
  TRACK 68 AUDIO
    TITLE "2Q_t_0118-0134_68"
    INDEX 01 01:29:10
  TRACK 69 AUDIO
    TITLE "2Q_t_0118-0134_69"
    INDEX 01 01:29:57
  TRACK 70 AUDIO
    TITLE "2Q_t_0118-0134_70"
    INDEX 01 01:32:05
